<svg xmlns="http://www.w3.org/2000/svg" width="1223" height="400" viewBox="0 0 1223 400">

<g transform="translate(53.44,16.79) scale(3.6641)"><g fill="none" stroke="#12141A" stroke-width="5.5" stroke-linecap="round" stroke-linejoin="round"><path transform="translate(-5.0,0)" d="M28,20 C21,20 22,27 22,36 L22,43 C22,47 20,50 15,50 C20,50 22,53 22,57 L22,64 C22,73 21,80 28,80"/><path transform="translate(5.0,0)" d="M72,20 C79,20 78,27 78,36 L78,43 C78,47 80,50 85,50 C80,50 78,53 78,57 L78,64 C78,73 79,80 72,80"/></g><polygon points="50.0,29.4 68.706,40.2 50.0,51.0 31.294,40.2" fill="#FF9A80"/><polygon points="31.294,40.2 50.0,51.0 50.0,72.6 31.294,61.8" fill="#FF6347"/><polygon points="50.0,51.0 68.706,40.2 68.706,61.8 50.0,72.6" fill="#C8412A"/></g>
<path d="M499.6104427480916 285.16116030534346Q472.75844274809157 285.16116030534346 459.92044274809155 266.7371603053435Q447.0824427480916 248.31316030534347 447.0824427480916 214.4051603053435Q447.0824427480916 180.6931603053435 459.92044274809155 162.1711603053435Q472.75844274809157 143.64916030534349 499.6104427480916 143.64916030534349Q509.80244274809155 143.64916030534349 517.5444427480916 146.39316030534349Q525.2864427480915 149.13716030534349 530.9704427480915 153.93916030534348Q536.6544427480916 158.7411603053435 540.3784427480916 165.5031603053435Q544.1024427480916 172.26516030534347 546.2584427480915 180.30116030534347L522.7384427480915 186.9651603053435Q521.3664427480916 182.26116030534348 519.6024427480916 178.1451603053435Q517.8384427480916 174.02916030534348 515.1924427480915 170.9911603053435Q512.5464427480915 167.9531603053435 508.62644274809156 166.2871603053435Q504.7064427480916 164.6211603053435 499.21844274809155 164.6211603053435Q485.8904427480916 164.6211603053435 480.10844274809153 174.8131603053435Q474.32644274809155 185.00516030534348 474.32644274809155 202.6451603053435V226.16516030534348Q474.32644274809155 243.80516030534346 480.10844274809153 253.99716030534347Q485.8904427480916 264.1891603053435 499.21844274809155 264.1891603053435Q504.7064427480916 264.1891603053435 508.62644274809156 262.5231603053435Q512.5464427480915 260.8571603053435 515.1924427480915 257.8191603053435Q517.8384427480916 254.7811603053435 519.6024427480916 250.66516030534348Q521.3664427480916 246.5491603053435 522.7384427480915 241.84516030534348L546.2584427480915 248.50916030534347Q544.1024427480916 256.5451603053435 540.3784427480916 263.3071603053435Q536.6544427480916 270.0691603053435 530.9704427480915 274.87116030534344Q525.2864427480915 279.67316030534346 517.5444427480916 282.4171603053435Q509.80244274809155 285.16116030534346 499.6104427480916 285.16116030534346Z M650.9224427480915 282.8091603053435Q641.7104427480915 282.8091603053435 636.7124427480915 278.2031603053435Q631.7144427480915 273.5971603053435 630.7344427480915 265.36516030534347H629.7544427480915Q627.0104427480916 274.7731603053435 618.9744427480916 279.96716030534344Q610.9384427480916 285.16116030534346 599.1784427480916 285.16116030534346Q583.8904427480916 285.16116030534346 574.8744427480915 277.12516030534346Q565.8584427480915 269.08916030534346 565.8584427480915 254.7811603053435Q565.8584427480915 224.2051603053435 610.7424427480915 224.2051603053435H628.5784427480916V217.54116030534348Q628.5784427480916 207.93716030534347 623.8744427480915 203.0371603053435Q619.1704427480915 198.13716030534349 608.5864427480915 198.13716030534349Q598.9824427480916 198.13716030534349 593.1024427480916 201.8611603053435Q587.2224427480916 205.5851603053435 583.1064427480916 211.4651603053435L568.7984427480916 199.31316030534347Q573.5024427480915 190.88516030534348 583.9884427480915 185.10316030534347Q594.4744427480915 179.32116030534348 611.1344427480915 179.32116030534348Q631.1264427480916 179.32116030534348 642.3964427480915 188.63116030534349Q653.6664427480915 197.9411603053435 653.6664427480915 216.36516030534347V263.9931603053435H665.6224427480915V282.8091603053435ZM607.6064427480916 267.91316030534347Q616.6224427480915 267.91316030534347 622.6004427480916 263.69916030534347Q628.5784427480916 259.48516030534347 628.5784427480916 252.2331603053435V238.7091603053435H611.3304427480915Q590.7504427480916 238.7091603053435 590.7504427480916 251.6451603053435V255.56516030534348Q590.7504427480916 261.6411603053435 595.2584427480915 264.7771603053435Q599.7664427480915 267.91316030534347 607.6064427480916 267.91316030534347Z M751.4704427480915 264.97316030534347H750.0984427480915Q745.9824427480916 274.18516030534346 738.8284427480916 279.67316030534346Q731.6744427480916 285.16116030534346 719.9144427480916 285.16116030534346Q711.2904427480916 285.16116030534346 704.1364427480916 281.9271603053435Q696.9824427480916 278.6931603053435 691.8864427480916 272.1271603053435Q686.7904427480916 265.5611603053435 684.0464427480915 255.56516030534348Q681.3024427480916 245.56916030534347 681.3024427480916 232.24116030534347Q681.3024427480916 205.5851603053435 691.8864427480916 192.4531603053435Q702.4704427480915 179.32116030534348 719.9144427480916 179.32116030534348Q731.6744427480916 179.32116030534348 738.8284427480916 184.80916030534348Q745.9824427480916 190.29716030534348 750.0984427480915 199.50916030534347H751.4704427480915V137.7691603053435H776.5584427480916V282.8091603053435H751.4704427480915ZM730.4984427480915 265.1691603053435Q734.8104427480915 265.1691603053435 738.6324427480915 264.09116030534346Q742.4544427480915 263.0131603053435 745.2964427480915 260.9551603053435Q748.1384427480916 258.8971603053435 749.8044427480916 255.6631603053435Q751.4704427480915 252.4291603053435 751.4704427480915 248.11716030534348V216.36516030534347Q751.4704427480915 212.05316030534348 749.8044427480916 208.81916030534347Q748.1384427480916 205.5851603053435 745.2964427480915 203.5271603053435Q742.4544427480915 201.46916030534348 738.6324427480915 200.39116030534348Q734.8104427480915 199.31316030534347 730.4984427480915 199.31316030534347Q719.5224427480915 199.31316030534347 713.5444427480916 205.9771603053435Q707.5664427480915 212.64116030534348 707.5664427480915 224.2051603053435V240.27716030534347Q707.5664427480915 251.8411603053435 713.5444427480916 258.5051603053435Q719.5224427480915 265.1691603053435 730.4984427480915 265.1691603053435Z M848.8824427480915 285.16116030534346Q837.3184427480916 285.16116030534346 828.2044427480917 281.43716030534347Q819.0904427480916 277.7131603053435 812.7204427480916 270.8531603053435Q806.3504427480916 263.9931603053435 802.9204427480915 254.1931603053435Q799.4904427480916 244.39316030534349 799.4904427480916 232.24116030534347Q799.4904427480916 220.08916030534348 802.9204427480915 210.2891603053435Q806.3504427480916 200.4891603053435 812.7204427480916 193.62916030534348Q819.0904427480916 186.76916030534346 828.2044427480917 183.04516030534347Q837.3184427480916 179.32116030534348 848.8824427480915 179.32116030534348Q860.2504427480916 179.32116030534348 869.4624427480916 183.04516030534347Q878.6744427480916 186.76916030534346 885.0444427480916 193.62916030534348Q891.4144427480916 200.4891603053435 894.8444427480915 210.2891603053435Q898.2744427480916 220.08916030534348 898.2744427480916 232.24116030534347Q898.2744427480916 244.39316030534349 894.8444427480915 254.1931603053435Q891.4144427480916 263.9931603053435 885.0444427480916 270.8531603053435Q878.6744427480916 277.7131603053435 869.4624427480916 281.43716030534347Q860.2504427480916 285.16116030534346 848.8824427480915 285.16116030534346ZM848.8824427480915 265.9531603053435Q859.6624427480916 265.9531603053435 865.9344427480917 259.3871603053435Q872.2064427480916 252.82116030534348 872.2064427480916 240.08116030534347V224.40116030534347Q872.2064427480916 211.6611603053435 865.9344427480917 205.09516030534348Q859.6624427480916 198.52916030534348 848.8824427480915 198.52916030534348Q838.1024427480916 198.52916030534348 831.8304427480916 205.09516030534348Q825.5584427480916 211.6611603053435 825.5584427480916 224.40116030534347V240.08116030534347Q825.5584427480916 252.82116030534348 831.8304427480916 259.3871603053435Q838.1024427480916 265.9531603053435 848.8824427480915 265.9531603053435Z M951.3904427480916 282.8091603053435 915.1304427480916 181.67316030534346H941.3944427480916L954.9184427480916 224.5971603053435L966.2864427480916 261.8371603053435H967.6584427480916L979.0264427480917 224.5971603053435L992.5504427480917 181.67316030534346H1017.8344427480916L981.5744427480915 282.8091603053435Z M1121.3224427480916 282.8091603053435Q1112.1104427480916 282.8091603053435 1107.1124427480918 278.2031603053435Q1102.1144427480917 273.5971603053435 1101.1344427480917 265.36516030534347H1100.1544427480917Q1097.4104427480916 274.7731603053435 1089.3744427480915 279.96716030534344Q1081.3384427480917 285.16116030534346 1069.5784427480917 285.16116030534346Q1054.2904427480917 285.16116030534346 1045.2744427480916 277.12516030534346Q1036.2584427480917 269.08916030534346 1036.2584427480917 254.7811603053435Q1036.2584427480917 224.2051603053435 1081.1424427480915 224.2051603053435H1098.9784427480915V217.54116030534348Q1098.9784427480915 207.93716030534347 1094.2744427480916 203.0371603053435Q1089.5704427480916 198.13716030534349 1078.9864427480916 198.13716030534349Q1069.3824427480915 198.13716030534349 1063.5024427480917 201.8611603053435Q1057.6224427480915 205.5851603053435 1053.5064427480916 211.4651603053435L1039.1984427480916 199.31316030534347Q1043.9024427480915 190.88516030534348 1054.3884427480916 185.10316030534347Q1064.8744427480917 179.32116030534348 1081.5344427480916 179.32116030534348Q1101.5264427480915 179.32116030534348 1112.7964427480915 188.63116030534349Q1124.0664427480917 197.9411603053435 1124.0664427480917 216.36516030534347V263.9931603053435H1136.0224427480916V282.8091603053435ZM1078.0064427480916 267.91316030534347Q1087.0224427480916 267.91316030534347 1093.0004427480917 263.69916030534347Q1098.9784427480915 259.48516030534347 1098.9784427480915 252.2331603053435V238.7091603053435H1081.7304427480917Q1061.1504427480916 238.7091603053435 1061.1504427480916 251.6451603053435V255.56516030534348Q1061.1504427480916 261.6411603053435 1065.6584427480916 264.7771603053435Q1070.1664427480916 267.91316030534347 1078.0064427480916 267.91316030534347Z" fill="#12141A"/>
</svg>
